# xmcd
#
# Track frame offsets:
#	150
#	13142
#	28822
#	44037
#	61597
#	77760
#	95825
#	111450
#	127097
#	144772
#	163987
#	181850
#	197557
#	210197
#	229137
#	246312
#	263065
#	279227
#	293467
#
# Disc length: 4136
#
# Revision: 3
# Processed by: cddbd v1.5.1PL0 Copyright (c) Steve Scherf et al.
# Submitted via: audiograbber 1.82.02
# Normalized: r2:DSETVAR1
#
DISCID=10102613
DTITLE=Various Artist - SAVA06
DYEAR=1900
DGENRE=Karaoke
TTITLE0=Arnold, Eddy - I Really Don't Want To Know
TTITLE1=Brown, T. Graham - I Tell It Like It Used To Be
TTITLE2=Shelton, Ricky Van - I'll Leave This World Loving You
TTITLE3=Judds, The - Love Is Alive
TTITLE4=Conlee, John - Rose Colored Glasses
TTITLE5=Alabama - Then Again
TTITLE6=Overstreet, Paul - Ball And Chain
TTITLE7=Reid, Mike - Walk On Faith
TTITLE8=Travis, Randy - Point Of Light
TTITLE9=Gill, Vince - Look At Us
TTITLE10=Judds, The - One Hundred And Two
TTITLE11=Stuart, Marty - Tempted
TTITLE12=Anderson, John - Straight Tequila Night
TTITLE13=Raye, Collin - Love Me
TTITLE14=Reid, Mike - I'll Stop Loving You
TTITLE15=Strait, George - The Chill Of An Early Fall
TTITLE16=Stone, Doug - A Jukebox With A Country Song
TTITLE17=Crests, The - Sixteen Candles  (16 Candles)
TTITLE18=Nitty Gritty Dirt Band - Mr. Bojangles
EXTD=
EXTT0=
EXTT1=
EXTT2=
EXTT3=
EXTT4=
EXTT5=
EXTT6=
EXTT7=
EXTT8=
EXTT9=
EXTT10=
EXTT11=
EXTT12=
EXTT13=
EXTT14=
EXTT15=
EXTT16=
EXTT17=
EXTT18=
PLAYORDER=
